<svg width="72" height="72" viewBox="0 0 72 72" fill="none" xmlns="http://www.w3.org/2000/svg">
<path fill-rule="evenodd" clip-rule="evenodd" d="M36 72C55.8823 72 72 55.8823 72 36C72 16.1177 55.8823 0 36 0C16.1177 0 0 16.1177 0 36C0 55.8823 16.1177 72 36 72ZM41.682 46.9594L42.9518 45.0548C43.8971 43.6368 45.813 43.2536 47.2311 44.1989L52.6269 47.7961C53.8646 48.6213 54.3375 50.212 53.7515 51.5793L53.0561 53.202C52.5278 54.4347 51.5796 55.4403 50.3801 56.0401C49.3779 56.5412 48.3225 56.9296 47.2033 56.9822C43.6761 57.148 34.9862 56.3747 25.3067 46.6952C15.6273 37.0157 14.8538 28.3258 15.0197 24.7986C15.0723 23.6793 15.4607 22.624 15.9618 21.6218C16.5616 20.4222 17.5671 19.4741 18.7998 18.9458L20.4225 18.2503C21.7898 17.6643 23.3806 18.1372 24.2057 19.3749L27.8029 24.7708C28.7483 26.1888 28.3651 28.1047 26.9471 29.0501L25.0424 30.3199C24.6623 30.5733 24.3379 30.9085 24.2211 31.3502C23.8388 32.7972 23.6662 36.6387 29.5147 42.4872C35.3632 48.3357 39.2047 48.163 40.6516 47.7807C41.0934 47.664 41.4286 47.3396 41.682 46.9594ZM35.102 15.0003C35.102 14.5033 35.5049 14.1003 36.002 14.1003C48.097 14.1003 57.902 23.9053 57.902 36.0003C57.902 36.4974 57.499 36.9003 57.002 36.9003C56.5049 36.9003 56.102 36.4974 56.102 36.0003C56.102 24.8994 47.1029 15.9003 36.002 15.9003C35.5049 15.9003 35.102 15.4974 35.102 15.0003ZM36.002 23.1003C35.5049 23.1003 35.102 23.5033 35.102 24.0003C35.102 24.4974 35.5049 24.9003 36.002 24.9003C42.1323 24.9003 47.102 29.87 47.102 36.0003C47.102 36.4974 47.5049 36.9003 48.002 36.9003C48.499 36.9003 48.902 36.4974 48.902 36.0003C48.902 28.8759 43.1264 23.1003 36.002 23.1003Z" fill="#89EC99"/>
</svg>
