<svg width="40" height="40" viewBox="0 0 40 40" fill="none" xmlns="http://www.w3.org/2000/svg">
<path fill-rule="evenodd" clip-rule="evenodd" d="M36.3636 19.4834C34.7537 26.8828 26.9205 32.4972 17.5 32.4972C16.141 32.4972 14.8151 32.3804 13.5361 32.1582C16.1321 34.4101 19.9324 35.8306 24.1666 35.8306C26.496 35.8306 28.6941 35.4006 30.6326 34.6389C31.6906 34.2232 35.5222 35.582 37.35 36.2784C37.7445 36.4287 38.1521 36.0567 38.0383 35.6502C37.5373 33.8609 36.621 30.2499 37.1211 29.3885C37.9003 28.0463 38.3333 26.5604 38.3333 24.9972C38.3333 22.9838 37.615 21.0986 36.3636 19.4834Z" fill="#212129"/>
<path d="M33.3334 16.6667C33.3334 23.5703 26.2446 29.1667 17.5001 29.1667C15.1185 29.1667 12.8596 28.7516 10.8334 28.008C9.64305 27.5711 4.81091 29.0016 2.68211 29.6723C2.27747 29.7998 1.89522 29.3976 2.03798 28.9981C2.70213 27.1394 3.96752 23.2552 3.33341 22.2553C2.26692 20.5736 1.66675 18.6755 1.66675 16.6667C1.66675 9.76319 8.75557 4.16675 17.5001 4.16675C26.2446 4.16675 33.3334 9.76319 33.3334 16.6667Z" fill="#212129"/>
</svg>
