<svg width="25" height="25" viewBox="0 0 25 25" fill="none" xmlns="http://www.w3.org/2000/svg">
<path fill-rule="evenodd" clip-rule="evenodd" d="M12.25 22.5C17.7728 22.5 22.25 18.0228 22.25 12.5C22.25 6.97715 17.7728 2.5 12.25 2.5C6.72715 2.5 2.25 6.97715 2.25 12.5C2.25 18.0228 6.72715 22.5 12.25 22.5ZM16.96 8.05635C17.0405 7.88651 16.8635 7.70953 16.6937 7.78998L11.7733 10.1207C10.9384 10.5161 10.2661 11.1884 9.87068 12.0233L7.53998 16.9437C7.45953 17.1135 7.63651 17.2905 7.80635 17.21L12.7267 14.8793C13.5616 14.4838 14.2338 13.8116 14.6293 12.9767L16.96 8.05635Z" fill="#686D76"/>
</svg>
