<svg width="25" height="25" viewBox="0 0 25 25" fill="none" xmlns="http://www.w3.org/2000/svg">
<path fill-rule="evenodd" clip-rule="evenodd" d="M22.3182 12.1899C21.3523 16.6296 16.6524 19.9983 11 19.9983C10.1846 19.9983 9.38909 19.9282 8.6217 19.7949C10.1793 21.1459 12.4595 21.9982 15 21.9982C16.3976 21.9982 17.7165 21.7403 18.8796 21.2832C19.4455 21.0608 21.3344 21.6848 22.5146 22.1189C22.9108 22.2646 23.3201 21.8896 23.2114 21.4816C22.9075 20.3412 22.5071 18.5906 22.7727 18.133C23.2402 17.3277 23.5 16.4362 23.5 15.4982C23.5 14.2902 23.069 13.1591 22.3182 12.1899Z" fill="#686D76"/>
<path d="M20.5 10.5C20.5 14.6421 16.2467 18 11 18C9.57102 18 8.21574 17.7509 7 17.3048C6.35423 17.0678 3.92216 17.7467 2.5178 18.1764C2.11212 18.3006 1.72655 17.897 1.86365 17.4955C2.27292 16.297 2.83908 14.3878 2.5 13.8531C1.8601 12.8441 1.5 11.7052 1.5 10.5C1.5 6.35786 5.75329 3 11 3C16.2467 3 20.5 6.35786 20.5 10.5Z" fill="#686D76"/>
</svg>
