<svg width="25" height="25" viewBox="0 0 25 25" fill="none" xmlns="http://www.w3.org/2000/svg">
<path fill-rule="evenodd" clip-rule="evenodd" d="M11.85 3.5C11.85 2.94772 11.4023 2.5 10.85 2.5H7.75C6.64543 2.5 5.75 3.39543 5.75 4.5V20.5C5.75 21.6046 6.64543 22.5 7.75 22.5H17.75C18.8546 22.5 19.75 21.6046 19.75 20.5V11.4C19.75 10.8477 19.3023 10.4 18.75 10.4H14.75C13.1484 10.4 11.85 9.10163 11.85 7.5V3.5ZM10.25 13.6C9.75294 13.6 9.35 14.0029 9.35 14.5C9.35 14.9971 9.75294 15.4 10.25 15.4H12.75C13.2471 15.4 13.65 14.9971 13.65 14.5C13.65 14.0029 13.2471 13.6 12.75 13.6H10.25ZM10.25 17.1C9.75294 17.1 9.35 17.5029 9.35 18C9.35 18.4971 9.75294 18.9 10.25 18.9H15.25C15.7471 18.9 16.15 18.4971 16.15 18C16.15 17.5029 15.7471 17.1 15.25 17.1H10.25Z" fill="#686D76"/>
<path d="M17.6429 8.6C18.0883 8.6 18.3114 8.06143 17.9964 7.74645L14.5036 4.25355C14.1886 3.93857 13.65 4.16165 13.65 4.60711V7.5C13.65 8.10751 14.1425 8.6 14.75 8.6H17.6429Z" fill="#686D76"/>
</svg>
