<svg width="25" height="25" viewBox="0 0 25 25" fill="none" xmlns="http://www.w3.org/2000/svg">
<path fill-rule="evenodd" clip-rule="evenodd" d="M6.51226 9.34747L6.58616 10.9887C6.66338 12.7036 6.70198 13.561 6.95793 14.3412C7.18465 15.0323 7.53513 15.6764 7.99228 16.2421C8.50836 16.8807 9.20734 17.3788 10.6053 18.375L11.5716 19.0636C11.9058 19.3017 12.0728 19.4207 12.255 19.4668C12.4159 19.5075 12.5844 19.5075 12.7453 19.4668C12.9274 19.4207 13.0945 19.3017 13.4286 19.0636L13.4286 19.0636L14.3949 18.375C15.7929 17.3788 16.4919 16.8807 17.008 16.2421C17.4651 15.6764 17.8156 15.0323 18.0423 14.3412C18.2983 13.561 18.3369 12.7036 18.4141 10.9887V10.9887L18.488 9.34747C18.5049 8.97255 18.5133 8.78508 18.4517 8.51836C18.4106 8.34038 18.2667 8.00798 18.1651 7.85618C18.0128 7.62868 17.9233 7.55187 17.7442 7.39827C16.8134 6.60001 15.0654 5.5 12.5001 5.5C9.93483 5.5 8.18683 6.60001 7.25607 7.39827C7.07697 7.55187 6.98741 7.62868 6.83515 7.85618C6.73355 8.00798 6.58969 8.34038 6.54857 8.51836C6.48694 8.78508 6.49538 8.97255 6.51226 9.34747ZM15.8238 11.2138C16.1736 10.8607 16.1709 10.2908 15.8178 9.94104C15.4646 9.59124 14.8948 9.59394 14.545 9.94707L11.8293 12.6885L10.4557 11.3018C10.1059 10.9487 9.53605 10.946 9.18292 11.2958C8.82979 11.6456 8.82709 12.2155 9.1769 12.5686L11.1899 14.6008C11.359 14.7714 11.5892 14.8674 11.8293 14.8674C12.0695 14.8674 12.2997 14.7714 12.4687 14.6008L15.8238 11.2138Z" fill="#6EEB83"/>
</svg>
