<svg width="18" height="19" viewBox="0 0 18 19" fill="none" xmlns="http://www.w3.org/2000/svg">
<path fill-rule="evenodd" clip-rule="evenodd" d="M4.04888 6.93921L4.07944 7.63849C4.1532 9.32652 4.19008 10.1705 4.43835 10.9408C4.65829 11.6231 4.99874 12.2606 5.44356 12.8228C5.94567 13.4575 6.62664 13.9575 7.98859 14.9575L8.09177 15.0332L8.09177 15.0333C8.43186 15.283 8.6019 15.4078 8.78808 15.456C8.95246 15.4986 9.12497 15.4986 9.28935 15.456C9.47554 15.4078 9.64558 15.283 9.98566 15.0332L10.0888 14.9575C11.4508 13.9575 12.1318 13.4575 12.6339 12.8228C13.0787 12.2606 13.4191 11.6231 13.6391 10.9408C13.8873 10.1705 13.9242 9.32652 13.998 7.63849L14.0286 6.93921C14.0442 6.5802 14.0521 6.40069 13.9891 6.13211C13.9483 5.95834 13.7973 5.61404 13.6971 5.46632C13.5423 5.23801 13.4626 5.17083 13.3033 5.03647C12.5029 4.36136 11.0813 3.5 9.03872 3.5C6.99608 3.5 5.57457 4.36136 4.77412 5.03647C4.61481 5.17083 4.53516 5.23801 4.3803 5.46632C4.28011 5.61404 4.12914 5.95834 4.08837 6.13211C4.02535 6.40069 4.03319 6.5802 4.04888 6.93921ZM11.365 8.84197C11.5539 8.64051 11.5437 8.3241 11.3422 8.13523C11.1408 7.94637 10.8243 7.95657 10.6355 8.15803L9.12524 9.76894L8.36501 8.95803C8.17615 8.75657 7.85973 8.74637 7.65827 8.93523C7.45682 9.1241 7.44661 9.44051 7.63548 9.64197L8.76048 10.842C8.855 10.9428 8.98704 11 9.12524 11C9.26345 11 9.39549 10.9428 9.49001 10.842L11.365 8.84197Z" fill="#6EEB83"/>
</svg>
