<svg width="20" height="20" viewBox="0 0 20 20" fill="none" xmlns="http://www.w3.org/2000/svg">
<path fill-rule="evenodd" clip-rule="evenodd" d="M6.94436 4.99998C6.94436 3.28789 8.33227 1.89998 10.0444 1.89998C11.7564 1.89998 13.1444 3.28789 13.1444 4.99998V8.09998H6.94436V4.99998ZM14.9444 4.99998V8.09998H17.0444C17.4734 8.09998 17.8427 8.40279 17.9269 8.82347L19.9269 18.8235C19.9798 19.0879 19.9113 19.362 19.7404 19.5706C19.5694 19.7791 19.314 19.9 19.0444 19.9H1.04436C0.774722 19.9 0.519293 19.7791 0.348348 19.5706C0.177403 19.362 0.108954 19.0879 0.161833 18.8235L2.16183 8.82347C2.24597 8.40279 2.61534 8.09998 3.04436 8.09998H5.14436V4.99998C5.14436 2.29378 7.33816 0.0999756 10.0444 0.0999756C12.7506 0.0999756 14.9444 2.29378 14.9444 4.99998Z" fill="#171717"/>
</svg>
